<svg width="300" height="300" xmlns="http://www.w3.org/2000/svg">
 <!-- Created with Method Draw - http://github.com/duopixel/Method-Draw/ -->
 <g>
  <title>background</title>
  <rect fill="none" id="canvas_background" height="402" width="582" y="-1" x="-1"/>
 </g>
 <g>
  <title>Layer 1</title>
  <path id="svg_4" d="m261.5,227" opacity="0.5" stroke-width="1.5" fill="#000"/>
  <ellipse ry="102" rx="123" id="svg_5" cy="141" cx="152.5" stroke-opacity="null" stroke-width="1.5" stroke="null" fill="#efef1c"/>
  <path d="m102.5,84c0,2 3.288574,12.868286 5,17c3.630463,8.764694 6.15097,9.434631 8,12c0.584717,0.811249 0.292908,1.292892 1,2c0.707092,0.707108 1.693451,0.458801 3,1c0.923889,0.38269 1.693451,0.458801 3,1c0.923889,0.38269 2,1 3,2c1,1 2.585785,-0.414215 4,1c0.707092,0.707108 0.693451,1.458801 2,2c0.923889,0.38269 1.292908,0.292892 2,1c0.707092,0.707108 1.852722,0.173096 3,1c1.813995,1.307449 3.292908,1.292892 4,2c1.414215,1.414215 3.693451,0.458801 5,1c1.847748,0.765366 3,0 5,0c4,0 7,0 9,0c2,0 4,0 6,0c1,0 2,1 3,1c1,0 2,0 3,0c1,0 4,1 5,1c1,0 3,0 4,0c2,0 3,0 4,0c1,0 3,0 4,0c1,0 3,0 4,0c1,0 2,0 3,0c1,0 1.474274,-2.149353 2,-3c1.175568,-1.902115 3.076111,-1.61731 4,-2c1.306549,-0.541199 1.0979,-1.824432 3,-3c1.701294,-1.051468 2.693451,-1.458801 4,-2c1.847748,-0.765366 3,-1 4,-2l1,-1" id="svg_10" stroke-width="1.5" stroke="#191919" fill="none"/>
  <path d="m58.5,119c3,2 5,3 7,5c2,2 4,3 5,5c1,2 4.458801,5.693436 5,7c0.38269,0.923874 0.61731,2.076126 1,3c0.541199,1.306564 1.693451,1.458801 3,2c0.923889,0.38269 2.076111,0.61731 3,1c1.306549,0.541199 1.386871,1.917603 4,3c1.847748,0.765366 4,1 5,1c1,0 1.186005,0.692551 3,2c1.147278,0.826904 2.186005,0.692551 4,2c1.147278,0.826904 3,2 4,2c2,0 2,1 4,1c2,0 4.076111,0.61731 5,1c1.306549,0.541199 3,2 4,2c2,0 4.186005,0.692551 6,2c1.147278,0.826904 1.823761,1.486267 4,2c0.973236,0.229767 2,1 3,1c1,0 1.693451,1.458801 3,2c0.923889,0.38269 2.076111,0.61731 3,1c1.306549,0.541199 1.934143,1.144287 4,2c2.92157,1.210144 4.823761,2.486267 7,3c2.919739,0.68927 4.878571,1.493469 8,2c1.974182,0.320374 6,0 8,0c3,0 5,1 8,1c2,0 4,0 7,0c1,0 3,0 6,0c1,0 2,1 4,1c2,0 3,0 4,0c1,0 2,0 3,0c1,0 2,-3 3,-4c1,-1 1.693451,-3.458801 3,-4c0.923889,-0.38269 3.693451,-3.458801 5,-4c1.847748,-0.765381 4.372009,-1.385101 8,-4c1.147278,-0.826904 2,-2 3,-2c1,0 1,-1 2,-1l0,-1" id="svg_11" stroke-width="1.5" stroke="#191919" fill="none"/>
  <path d="m156.5,148c0,2 0,4 0,5c0,1 -1,1 -2,1c-1,0 -2,0 -3,0c-1,0 -2,1 -3,1c-1,0 -3,0 -5,0c-1,0 -2,0 -3,0l-1,0" id="svg_12" fill-opacity="null" stroke-opacity="null" stroke-width="1.5" stroke="#191919" fill="none"/>
  <path d="m118.5,129c-1,0 -2,0 -3,0c-1,0 1.292908,-0.292892 2,-1c0.707092,-0.707108 0.707092,-2.292892 0,-3c-1.414215,-1.414215 -3,0 -6,0c-3,0 -4.540497,0.053497 -5,2c-0.513733,2.176254 -2,3 -2,8c0,5 0,7 0,10c0,1 0,3 0,4l2,1l0,1l1,0" id="svg_13" fill-opacity="null" stroke-opacity="null" stroke-width="1.5" stroke="#191919" fill="none"/>
  <polyline stroke-linecap="round" id="svg_14" points="178.5,145 177.5,145 " fill-opacity="null" stroke-opacity="null" stroke-width="1.5" stroke="#191919" fill="none"/>
 </g>
</svg>